<?xml version="1.0" encoding="utf-8"?>
<!-- Generator: Adobe Illustrator 18.0.0, SVG Export Plug-In . SVG Version: 6.00 Build 0)  -->
<!DOCTYPE svg PUBLIC "-//W3C//DTD SVG 1.1//EN" "http://www.w3.org/Graphics/SVG/1.1/DTD/svg11.dtd">
<svg version="1.1" id="Layer_1" xmlns="http://www.w3.org/2000/svg" xmlns:xlink="http://www.w3.org/1999/xlink" x="0px" y="0px"
	 viewBox="0 0 294.7 106.7" enable-background="new 0 0 294.7 106.7" xml:space="preserve">
<g>
	<path d="M29.8,42.3c-1.7,1.6-3.6,2.7-5.6,3.6c-2,0.8-4.1,1.2-6.3,1.2c-3.1,0-5.7-0.9-7.6-2.6s-2.9-4-2.9-6.8c0-3.3,1.3-5.9,3.8-7.7
		c2.6-1.8,6.1-2.7,10.8-2.7c1.2,0,2.5,0.1,3.7,0.2s2.5,0.4,3.8,0.7v-0.2c0-2.4-0.6-4.2-1.7-5.4c-1.2-1.2-3-1.7-5.4-1.7
		c-1.6,0-3.5,0.4-5.5,1.3c-2,0.9-3.4,1.3-4,1.3c-0.6,0-1.1-0.2-1.5-0.7c-0.4-0.5-0.6-1.1-0.6-1.9c0-1.2,1.2-2.3,3.5-3.2
		c2.3-0.9,5.3-1.3,8.9-1.3c3.7,0,6.5,0.9,8.4,2.8c1.9,1.9,2.8,4.7,2.8,8.3v14.3H36c1.5,0,2.5,0.2,3,0.5c0.5,0.3,0.8,0.9,0.8,1.7
		c0,0.8-0.2,1.3-0.6,1.7c-0.4,0.4-1.1,0.6-1.9,0.6h-5c-0.6,0-1.1-0.2-1.5-0.5c-0.4-0.4-0.6-0.9-0.8-1.5L29.8,42.3z M29.5,32.3
		c-1.2-0.4-2.3-0.7-3.4-0.8c-1.1-0.2-2.2-0.3-3.2-0.3c-3.2,0-5.8,0.5-7.7,1.6c-1.9,1.1-2.8,2.6-2.8,4.4c0,1.4,0.6,2.6,1.8,3.5
		c1.2,0.9,2.7,1.4,4.5,1.4c2.7,0,5.1-0.7,7.4-2.1c2.3-1.4,3.4-2.9,3.4-4.4V32.3z"/>
	<path d="M74.7,39.4h0.5c1.1,0,2,0.3,2.6,0.9s0.9,1.4,0.9,2.5c0,1.2-0.3,2.1-0.9,2.7c-0.6,0.5-1.6,0.8-3,0.8h-4.8
		c-0.6,0-1.1-0.1-1.4-0.4c-0.3-0.2-0.5-0.6-0.5-1v-2.2c-1,1.4-2.4,2.5-4,3.2c-1.6,0.7-3.4,1.1-5.5,1.1c-4.1,0-7.6-1.4-10.3-4.2
		c-2.8-2.8-4.2-6.3-4.2-10.5c0-4.4,1.4-8,4.2-10.9c2.8-2.9,6.4-4.3,10.7-4.3c1.5,0,3,0.2,4.4,0.7c1.4,0.5,2.7,1.2,3.9,2.1v-8h-4.2
		c-1.5,0-2.5-0.3-3.1-0.8c-0.6-0.6-0.9-1.4-0.9-2.7c0-1.2,0.3-2.1,0.9-2.7C60.6,5.3,61.6,5,63.1,5h9.8c0.7,0,1.2,0.1,1.5,0.4
		c0.3,0.3,0.4,0.8,0.4,1.6V39.4z M59.9,23.9c-2.1,0-3.8,0.8-5.1,2.3c-1.4,1.5-2,3.5-2,5.9c0,2.4,0.7,4.4,2,6
		c1.3,1.5,3.1,2.3,5.1,2.3s3.8-0.8,5.2-2.3c1.4-1.6,2-3.5,2-6c0-2.4-0.7-4.3-2.1-5.9C63.7,24.6,62,23.9,59.9,23.9z"/>
	<path d="M91.5,33.6c0.5,2.3,1.6,4.1,3.2,5.2c1.6,1.2,3.7,1.7,6.3,1.7s5.2-0.6,7.7-1.9c2.5-1.3,4.1-1.9,4.6-1.9
		c0.8,0,1.4,0.3,1.9,0.9c0.5,0.6,0.7,1.3,0.7,2.2c0,2-1.5,3.7-4.4,5.1c-2.9,1.4-6.5,2.1-10.9,2.1c-5.1,0-9.2-1.4-12.4-4.3
		s-4.8-6.5-4.8-11c0-4.5,1.6-8.2,4.8-11c3.2-2.9,7.3-4.3,12.4-4.3c4.5,0,8.3,1.3,11.3,4c3,2.7,4.5,6,4.5,9.9c0,1.2-0.3,2.1-0.9,2.6
		c-0.6,0.5-1.8,0.7-3.7,0.7H91.5z M108.5,28.6c-0.4-2-1.3-3.5-2.8-4.5c-1.5-1.1-3.4-1.6-5.8-1.6c-2.3,0-4.1,0.5-5.5,1.5
		c-1.4,1-2.4,2.6-2.9,4.6H108.5z"/>
	<path d="M136.7,9.5h-5.4c-2,0-3.3-0.2-3.8-0.5c-0.5-0.3-0.8-0.9-0.8-1.8c0-0.8,0.2-1.3,0.6-1.7c0.4-0.4,1.1-0.6,1.9-0.6h10.4
		c0.6,0,1,0.1,1.3,0.3c0.3,0.2,0.5,0.5,0.5,0.9v35.6h9.9c0.8,0,1.4,0.2,1.8,0.5c0.4,0.3,0.6,0.9,0.6,1.7c0,0.9-0.2,1.5-0.5,1.8
		c-0.4,0.3-1,0.5-2,0.5h-23.3c-0.8,0-1.4-0.2-1.9-0.6c-0.4-0.4-0.6-0.9-0.6-1.7c0-0.7,0.2-1.3,0.7-1.6c0.4-0.4,1.1-0.5,2-0.5h8.7
		V9.5z"/>
	<path d="M175.5,9.5h-5.4c-2,0-3.3-0.2-3.8-0.5s-0.8-0.9-0.8-1.8c0-0.8,0.2-1.3,0.6-1.7c0.4-0.4,1.1-0.6,1.9-0.6h10.4
		c0.6,0,1,0.1,1.3,0.3c0.3,0.2,0.5,0.5,0.5,0.9v35.6h9.9c0.8,0,1.4,0.2,1.8,0.5c0.4,0.3,0.6,0.9,0.6,1.7c0,0.9-0.2,1.5-0.5,1.8
		c-0.4,0.3-1,0.5-2,0.5h-23.3c-0.8,0-1.4-0.2-1.9-0.6c-0.4-0.4-0.6-0.9-0.6-1.7c0-0.7,0.2-1.3,0.7-1.6c0.4-0.4,1.1-0.5,2-0.5h8.7
		V9.5z"/>
	<path d="M202.9,46.3h-1.5c-0.8,0-1.3-0.2-1.7-0.6c-0.4-0.4-0.6-0.9-0.6-1.7c0-0.8,0.2-1.4,0.7-1.7c0.5-0.3,1.5-0.5,3.1-0.5h2V13.4
		h-2c-1.6,0-2.6-0.2-3.1-0.5c-0.5-0.3-0.7-0.9-0.7-1.8c0-0.8,0.2-1.4,0.6-1.7c0.4-0.4,1-0.6,1.8-0.6h1.4H229c0.7,0,1.3,0.2,1.6,0.6
		c0.4,0.4,0.6,1.1,0.6,1.9v7.4c0,1.1-0.2,1.9-0.5,2.3c-0.3,0.4-0.9,0.6-1.7,0.6c-0.9,0-1.5-0.2-1.8-0.7s-0.5-1.5-0.5-3.1v-4.5h-16.8
		V24h8.3v-1.7c0-1.1,0.2-1.9,0.5-2.4s0.8-0.7,1.6-0.7c0.7,0,1.2,0.2,1.5,0.7c0.3,0.5,0.4,1.5,0.4,3V29c0,1.6-0.1,2.6-0.4,3
		c-0.3,0.4-0.8,0.7-1.6,0.7c-0.8,0-1.3-0.3-1.6-0.8s-0.4-1.5-0.4-2.9v-1.1h-8.3v14h16.8v-5.1c0-1.6,0.2-2.7,0.5-3.1s0.9-0.7,1.8-0.7
		c0.8,0,1.4,0.2,1.7,0.6s0.5,1.2,0.5,2.4v8c0,0.8-0.2,1.3-0.6,1.7c-0.4,0.4-0.9,0.6-1.6,0.6H202.9z"/>
	<path d="M36.7,79.2c0-3.2-0.3-5.4-0.9-6.5c-0.6-1.1-1.6-1.7-3-1.7c-1.7,0-3,0.7-4,2.2s-1.5,3.5-1.5,6v14.2h0.6
		c1.4,0,2.3,0.2,2.8,0.5c0.5,0.3,0.7,1,0.7,1.9c0,0.8-0.2,1.4-0.6,1.8c-0.4,0.4-1,0.6-1.8,0.6h-4.3c-1,0-1.6-0.2-2-0.7
		c-0.4-0.5-0.5-1.4-0.5-2.9v-1V79.2v-2.7c0-1.7-0.4-3.1-1.2-4c-0.8-1-1.8-1.5-3.2-1.5c-1,0-2,0.3-2.8,0.9c-0.8,0.6-1.6,1.5-2.2,2.7
		v18.8h1.3c1.4,0,2.3,0.2,2.8,0.5s0.7,1,0.7,1.8c0,0.9-0.2,1.6-0.6,1.9c-0.4,0.4-1.1,0.5-2.2,0.5H5.8c-0.9,0-1.6-0.2-2-0.6
		c-0.4-0.4-0.6-1-0.6-1.9c0-0.9,0.3-1.5,0.8-1.9c0.5-0.3,1.6-0.5,3.1-0.5h0.7V71.6H7.2c-1.6,0-2.7-0.2-3.3-0.5
		c-0.6-0.4-0.9-1-0.9-1.9c0-0.8,0.2-1.4,0.7-1.8c0.5-0.4,1.1-0.6,2.1-0.6h5.3c0.8,0,1.3,0.1,1.5,0.4c0.2,0.3,0.4,0.8,0.4,1.7
		c0.9-1,1.9-1.7,3-2.2c1.1-0.5,2.3-0.7,3.6-0.7c1.6,0,2.9,0.3,3.9,1c1,0.7,1.8,1.7,2.3,3.2c1-1.4,2.1-2.5,3.3-3.2
		c1.3-0.7,2.7-1,4.3-1c2.9,0,5.1,1,6.4,2.9c1.4,1.9,2,5,2,9.3v15.5h0.5c1.4,0,2.4,0.2,2.8,0.5s0.7,1,0.7,1.8c0,0.8-0.2,1.4-0.6,1.8
		s-1,0.6-1.8,0.6h-4.2c-0.9,0-1.6-0.3-2-0.8c-0.4-0.5-0.7-1.4-0.7-2.6V79.2z"/>
	<path d="M71.8,94.3c-1.7,1.6-3.6,2.7-5.6,3.6c-2,0.8-4.1,1.2-6.3,1.2c-3.1,0-5.7-0.9-7.6-2.6s-2.9-4-2.9-6.8c0-3.3,1.3-5.9,3.8-7.7
		c2.6-1.8,6.1-2.7,10.8-2.7c1.2,0,2.5,0.1,3.7,0.2c1.2,0.2,2.5,0.4,3.8,0.7v-0.2c0-2.4-0.6-4.2-1.7-5.4c-1.2-1.2-3-1.7-5.4-1.7
		c-1.6,0-3.5,0.4-5.5,1.3c-2,0.9-3.4,1.3-4,1.3c-0.6,0-1.1-0.2-1.5-0.7c-0.4-0.5-0.6-1.1-0.6-1.9c0-1.2,1.2-2.3,3.5-3.2
		c2.3-0.9,5.3-1.3,8.9-1.3c3.7,0,6.5,0.9,8.4,2.8c1.9,1.9,2.8,4.7,2.8,8.3v14.3H78c1.5,0,2.5,0.2,3,0.5s0.8,0.9,0.8,1.7
		c0,0.8-0.2,1.3-0.6,1.7c-0.4,0.4-1.1,0.6-1.9,0.6h-5c-0.6,0-1.1-0.2-1.5-0.5c-0.4-0.4-0.6-0.9-0.8-1.5L71.8,94.3z M71.5,84.3
		c-1.2-0.4-2.3-0.7-3.4-0.8c-1.1-0.2-2.2-0.3-3.2-0.3c-3.2,0-5.8,0.5-7.7,1.6c-1.9,1.1-2.8,2.6-2.8,4.4c0,1.4,0.6,2.6,1.8,3.5
		s2.7,1.4,4.5,1.4c2.7,0,5.1-0.7,7.4-2.1c2.3-1.4,3.4-2.9,3.4-4.4V84.3z"/>
	<path d="M103.4,79.7v11.1h8.1c1.5,0,2.6,0.3,3.3,0.9c0.6,0.6,1,1.5,1,2.8c0,1.3-0.3,2.3-1,2.9c-0.6,0.6-1.7,0.9-3.3,0.9H92.3
		c-1.6,0-2.7-0.3-3.3-0.9c-0.7-0.6-1-1.6-1-2.9c0-1.3,0.3-2.3,1-2.8c0.6-0.6,1.8-0.9,3.4-0.9h2.6V74.2h-1.5c-1.5,0-2.6-0.3-3.3-0.9
		c-0.6-0.6-1-1.5-1-2.9s0.3-2.3,0.9-2.9c0.6-0.6,1.7-0.9,3.3-0.9h7.3c0.6,0,1.1,0.1,1.4,0.4c0.3,0.3,0.5,0.6,0.5,1.1v5.1
		c2.5-2.7,4.8-4.6,7-5.7c2.2-1.1,4.5-1.7,7-1.7c2.3,0,4,0.5,5.4,1.5c1.3,1,2,2.4,2,4.1c0,1.3-0.5,2.4-1.4,3.3
		c-0.9,0.9-2.1,1.3-3.5,1.3c-1,0-2.2-0.4-3.6-1.1s-2.4-1.1-2.9-1.1c-1.1,0-2.4,0.5-3.9,1.5C107.2,76.2,105.4,77.7,103.4,79.7z"/>
	<path d="M156.4,70.9v-0.1c0-0.7,0.2-1.2,0.6-1.5c0.4-0.3,1-0.5,1.9-0.5c0.9,0,1.5,0.3,1.8,0.8c0.3,0.5,0.5,1.6,0.5,3.1v5.9
		c0,0.8-0.2,1.4-0.6,1.8c-0.4,0.4-1,0.6-1.8,0.6c-0.6,0-1.1-0.2-1.5-0.5c-0.4-0.3-0.9-1-1.5-2c-1-1.7-2.2-3-3.7-3.9
		c-1.4-0.9-3.1-1.3-5-1.3c-3.3,0-6,1-8,2.9c-2.1,1.9-3.1,4.5-3.1,7.6c0,3.2,1,5.7,3,7.7c2,2,4.5,3,7.6,3c1.4,0,2.8-0.2,4-0.6
		c1.3-0.4,2.5-1,3.6-1.8c0.4-0.3,0.9-0.6,1.6-1.2c1.4-1.1,2.5-1.7,3.2-1.7c0.7,0,1.2,0.2,1.6,0.6c0.4,0.4,0.6,0.9,0.6,1.6
		c0,1.7-1.6,3.4-4.7,5.1c-3.2,1.7-6.5,2.6-10.1,2.6c-4.6,0-8.4-1.5-11.5-4.4c-3.1-2.9-4.6-6.6-4.6-11c0-4.4,1.5-8.1,4.6-11
		c3-3,6.9-4.4,11.4-4.4c1.6,0,3.2,0.2,4.8,0.7C152.8,69.3,154.6,70,156.4,70.9z"/>
	<path d="M175.6,84.2c0.2,3.2,1.3,5.7,3.3,7.5c2,1.8,4.8,2.6,8.2,2.6c2.6,0,5.5-0.7,8.6-2.1c3.1-1.4,5-2.1,5.6-2.1
		c0.7,0,1.2,0.2,1.7,0.6c0.4,0.4,0.7,1,0.7,1.6c0,0.7-0.2,1.2-0.7,1.8s-1.2,1.1-2.3,1.6c-2.2,1.1-4.6,1.9-7,2.5
		c-2.4,0.6-4.8,0.9-7.1,0.9c-5.1,0-9.2-1.5-12.3-4.4c-3.1-3-4.6-6.9-4.6-11.7c0-5,1.6-9,4.9-12.1c3.3-3.1,7.5-4.6,12.7-4.6
		c4.7,0,8.7,1.4,11.8,4.3c3.1,2.9,4.7,6.4,4.7,10.4c0,1.3-0.3,2.1-0.8,2.5c-0.5,0.4-2,0.6-4.3,0.6h-0.5H175.6z M175.8,79.8h21.9
		c-0.3-2.7-1.5-4.8-3.4-6.5c-1.9-1.6-4.2-2.4-7-2.4c-3,0-5.5,0.8-7.5,2.4C177.8,74.8,176.5,77,175.8,79.8z"/>
	<path d="M227.9,93.5h11.2c0.9,0,1.5,0.2,1.9,0.6c0.4,0.4,0.6,1,0.6,1.8c0,0.9-0.2,1.6-0.6,1.9c-0.4,0.3-1.1,0.5-2.2,0.5h-22
		c-0.9,0-1.5-0.2-2-0.6s-0.7-1-0.7-1.8c0-0.8,0.2-1.4,0.7-1.8c0.5-0.4,1.2-0.6,2.1-0.6h5.9V71.9h-2.3c-2.2,0-3.5-0.2-4.1-0.5
		c-0.5-0.3-0.8-1-0.8-1.9c0-0.8,0.2-1.4,0.7-1.8c0.4-0.4,1.1-0.6,2-0.6h7.7c0.6,0,1.1,0.1,1.4,0.4c0.3,0.2,0.5,0.6,0.5,1v5.7
		c2.1-2.7,4.4-4.7,6.7-6c2.3-1.3,4.8-2,7.5-2c2,0,3.6,0.4,4.9,1.2c1.2,0.8,1.9,1.9,1.9,3.1c0,0.8-0.3,1.6-0.9,2.2
		c-0.6,0.6-1.3,1-2,1c-0.5,0-1.4-0.3-2.6-1c-1.2-0.7-2.3-1-3.3-1c-1.8,0-3.6,0.6-5.5,1.9c-1.9,1.2-4.1,3.2-6.5,5.9V93.5z"/>
	<path d="M277.6,68.4c5.1,0,9,1.4,11.5,4.3c2.6,2.9,3.4,6.5,2.4,11c-0.9,4.5-3.3,8.2-7.1,11c-3.8,2.9-8.2,4.3-13.3,4.3
		c-5.1,0-8.9-1.4-11.5-4.3c-2.6-2.9-3.4-6.5-2.4-11c1-4.5,3.3-8.2,7.1-11C268.1,69.9,272.6,68.4,277.6,68.4z M276.2,75.1
		c-2.5,0-4.7,0.8-6.6,2.4s-3.2,3.7-3.7,6.2c-0.5,2.5-0.2,4.6,1,6.3s3.1,2.5,5.6,2.5c2.5,0,4.7-0.8,6.6-2.5c1.9-1.7,3.2-3.7,3.7-6.3
		c0.5-2.5,0.2-4.6-1.1-6.2S278.7,75.1,276.2,75.1z"/>
</g>
</svg>
